<mxfile host="app.diagrams.net" modified="2023-12-10T16:55:51.756Z" agent="Mozilla/5.0 (Windows NT 10.0; Win64; x64) AppleWebKit/537.36 (KHTML, like Gecko) Chrome/120.0.0.0 Safari/537.36" etag="NzbxP1Z33DWjLVB6iz9V" version="22.1.7" type="device">
  <diagram name="Page-1" id="2a216829-ef6e-dabb-86c1-c78162f3ba2b">
    <mxGraphModel dx="1509" dy="1921" grid="1" gridSize="10" guides="1" tooltips="1" connect="1" arrows="1" fold="1" page="1" pageScale="1" pageWidth="850" pageHeight="1100" background="none" math="0" shadow="0">
      <root>
        <mxCell id="0" />
        <mxCell id="1" parent="0" />
        <mxCell id="0eVyNREpFF-r8MQKszDk-11" value="" style="edgeStyle=orthogonalEdgeStyle;rounded=0;orthogonalLoop=1;jettySize=auto;html=1;" edge="1" parent="1" source="7a84cebc1def654-2" target="7a84cebc1def654-3">
          <mxGeometry relative="1" as="geometry" />
        </mxCell>
        <mxCell id="0eVyNREpFF-r8MQKszDk-15" value="" style="edgeStyle=orthogonalEdgeStyle;rounded=0;orthogonalLoop=1;jettySize=auto;html=1;" edge="1" parent="1" source="7a84cebc1def654-2" target="7a84cebc1def654-8">
          <mxGeometry relative="1" as="geometry" />
        </mxCell>
        <mxCell id="7a84cebc1def654-2" value="Домашняя страница" style="shape=ext;rounded=1;html=1;whiteSpace=wrap;" parent="1" vertex="1">
          <mxGeometry x="241" y="-627.5" width="120" height="80" as="geometry" />
        </mxCell>
        <mxCell id="0eVyNREpFF-r8MQKszDk-16" style="edgeStyle=orthogonalEdgeStyle;rounded=0;orthogonalLoop=1;jettySize=auto;html=1;entryX=0;entryY=0.5;entryDx=0;entryDy=0;" edge="1" parent="1" source="7a84cebc1def654-3" target="0eVyNREpFF-r8MQKszDk-14">
          <mxGeometry relative="1" as="geometry">
            <mxPoint x="381" y="-706.5" as="targetPoint" />
          </mxGeometry>
        </mxCell>
        <mxCell id="7a84cebc1def654-3" value="Создание" style="shape=ext;rounded=1;html=1;whiteSpace=wrap;" parent="1" vertex="1">
          <mxGeometry x="241" y="-746.5" width="120" height="80" as="geometry" />
        </mxCell>
        <mxCell id="0eVyNREpFF-r8MQKszDk-17" value="" style="edgeStyle=orthogonalEdgeStyle;rounded=0;orthogonalLoop=1;jettySize=auto;html=1;" edge="1" parent="1" source="7a84cebc1def654-8" target="7a84cebc1def654-14">
          <mxGeometry relative="1" as="geometry" />
        </mxCell>
        <mxCell id="7a84cebc1def654-8" value="Вход/Регистрация" style="shape=ext;rounded=1;html=1;whiteSpace=wrap;" parent="1" vertex="1">
          <mxGeometry x="401" y="-627.5" width="120" height="80" as="geometry" />
        </mxCell>
        <mxCell id="0eVyNREpFF-r8MQKszDk-101" style="edgeStyle=orthogonalEdgeStyle;rounded=0;orthogonalLoop=1;jettySize=auto;html=1;entryX=0;entryY=0.5;entryDx=0;entryDy=0;" edge="1" parent="1" source="7a84cebc1def654-12" target="0eVyNREpFF-r8MQKszDk-99">
          <mxGeometry relative="1" as="geometry" />
        </mxCell>
        <mxCell id="0eVyNREpFF-r8MQKszDk-102" style="edgeStyle=orthogonalEdgeStyle;rounded=0;orthogonalLoop=1;jettySize=auto;html=1;entryX=0;entryY=0.5;entryDx=0;entryDy=0;" edge="1" parent="1" source="7a84cebc1def654-12" target="0eVyNREpFF-r8MQKszDk-96">
          <mxGeometry relative="1" as="geometry" />
        </mxCell>
        <mxCell id="0eVyNREpFF-r8MQKszDk-104" style="edgeStyle=orthogonalEdgeStyle;rounded=0;orthogonalLoop=1;jettySize=auto;html=1;entryX=0;entryY=0.5;entryDx=0;entryDy=0;" edge="1" parent="1" source="7a84cebc1def654-12" target="0eVyNREpFF-r8MQKszDk-103">
          <mxGeometry relative="1" as="geometry" />
        </mxCell>
        <mxCell id="7a84cebc1def654-12" value="СТРАНИЦА ССЫЛКИ" style="html=1;whiteSpace=wrap;rounded=1;" parent="1" vertex="1">
          <mxGeometry x="851" y="-737.5" width="120" height="80" as="geometry" />
        </mxCell>
        <mxCell id="0eVyNREpFF-r8MQKszDk-19" value="" style="edgeStyle=orthogonalEdgeStyle;rounded=0;orthogonalLoop=1;jettySize=auto;html=1;" edge="1" parent="1">
          <mxGeometry relative="1" as="geometry">
            <mxPoint x="620.9999999999998" y="-578.52" as="sourcePoint" />
            <mxPoint x="681" y="-788.482962962963" as="targetPoint" />
            <Array as="points">
              <mxPoint x="621" y="-788.52" />
            </Array>
          </mxGeometry>
        </mxCell>
        <mxCell id="0eVyNREpFF-r8MQKszDk-22" value="" style="edgeStyle=orthogonalEdgeStyle;rounded=0;orthogonalLoop=1;jettySize=auto;html=1;" edge="1" parent="1" source="7a84cebc1def654-14">
          <mxGeometry relative="1" as="geometry">
            <mxPoint x="721" y="-587.5" as="targetPoint" />
          </mxGeometry>
        </mxCell>
        <mxCell id="0eVyNREpFF-r8MQKszDk-77" style="edgeStyle=orthogonalEdgeStyle;rounded=0;orthogonalLoop=1;jettySize=auto;html=1;" edge="1" parent="1" source="7a84cebc1def654-14" target="0eVyNREpFF-r8MQKszDk-61">
          <mxGeometry relative="1" as="geometry">
            <Array as="points">
              <mxPoint x="621" y="-857.5" />
            </Array>
          </mxGeometry>
        </mxCell>
        <mxCell id="0eVyNREpFF-r8MQKszDk-107" style="edgeStyle=orthogonalEdgeStyle;rounded=0;orthogonalLoop=1;jettySize=auto;html=1;entryX=0;entryY=0.5;entryDx=0;entryDy=0;" edge="1" parent="1" source="7a84cebc1def654-14" target="0eVyNREpFF-r8MQKszDk-64">
          <mxGeometry relative="1" as="geometry" />
        </mxCell>
        <mxCell id="7a84cebc1def654-14" value="Личный кабинет" style="html=1;whiteSpace=wrap;rounded=1;" parent="1" vertex="1">
          <mxGeometry x="561" y="-627.5" width="120" height="80" as="geometry" />
        </mxCell>
        <mxCell id="7a84cebc1def654-16" value="Обработка&lt;br&gt;Формирование статистики" style="html=1;whiteSpace=wrap;rounded=1;" parent="1" vertex="1">
          <mxGeometry x="1091" y="-757.5" width="120" height="80" as="geometry" />
        </mxCell>
        <mxCell id="7a84cebc1def654-17" value="" style="shape=mxgraph.bpmn.timer_start;perimeter=ellipsePerimeter;html=1;labelPosition=right;labelBackgroundColor=#ffffff;align=left;" parent="7a84cebc1def654-16" vertex="1">
          <mxGeometry x="1" width="30" height="30" relative="1" as="geometry">
            <mxPoint x="-15" y="10" as="offset" />
          </mxGeometry>
        </mxCell>
        <mxCell id="0eVyNREpFF-r8MQKszDk-35" style="edgeStyle=orthogonalEdgeStyle;rounded=0;orthogonalLoop=1;jettySize=auto;html=1;entryX=0;entryY=0.5;entryDx=0;entryDy=0;" edge="1" parent="1" source="7a84cebc1def654-29" target="0eVyNREpFF-r8MQKszDk-27">
          <mxGeometry relative="1" as="geometry" />
        </mxCell>
        <mxCell id="7a84cebc1def654-29" value="Создание" style="html=1;whiteSpace=wrap;rounded=1;" parent="1" vertex="1">
          <mxGeometry x="851" y="-626.5" width="120" height="80" as="geometry" />
        </mxCell>
        <mxCell id="7a84cebc1def654-30" value="" style="html=1;shape=plus;" parent="7a84cebc1def654-29" vertex="1">
          <mxGeometry x="0.5" y="1" width="14" height="14" relative="1" as="geometry">
            <mxPoint x="-7" y="-21" as="offset" />
          </mxGeometry>
        </mxCell>
        <mxCell id="7a84cebc1def654-35" value="" style="shape=message;whiteSpace=wrap;html=1;" parent="1" vertex="1">
          <mxGeometry x="1311" y="-657.5" width="40" height="30" as="geometry" />
        </mxCell>
        <mxCell id="7a84cebc1def654-36" style="edgeStyle=orthogonalEdgeStyle;rounded=0;html=1;jettySize=auto;orthogonalLoop=1;" parent="1" target="7a84cebc1def654-2" edge="1">
          <mxGeometry relative="1" as="geometry">
            <mxPoint x="201" y="-587.5" as="sourcePoint" />
          </mxGeometry>
        </mxCell>
        <mxCell id="7a84cebc1def654-39" style="edgeStyle=orthogonalEdgeStyle;rounded=0;html=1;jettySize=auto;orthogonalLoop=1;" parent="1" source="7a84cebc1def654-2" target="7a84cebc1def654-3" edge="1">
          <mxGeometry relative="1" as="geometry" />
        </mxCell>
        <mxCell id="0eVyNREpFF-r8MQKszDk-1" value="" style="html=1;shape=plus;" vertex="1" parent="1">
          <mxGeometry x="294" y="-691.5000000000001" width="14" height="14" as="geometry" />
        </mxCell>
        <mxCell id="0eVyNREpFF-r8MQKszDk-87" value="" style="edgeStyle=orthogonalEdgeStyle;rounded=0;orthogonalLoop=1;jettySize=auto;html=1;" edge="1" parent="1" source="0eVyNREpFF-r8MQKszDk-2" target="0eVyNREpFF-r8MQKszDk-3">
          <mxGeometry relative="1" as="geometry" />
        </mxCell>
        <mxCell id="0eVyNREpFF-r8MQKszDk-2" value="" style="html=1;shape=plus;" vertex="1" parent="1">
          <mxGeometry x="40" y="-1070" width="41" height="39" as="geometry" />
        </mxCell>
        <mxCell id="0eVyNREpFF-r8MQKszDk-3" value="СОЗДАНИЕ ССЫЛКИ" style="rounded=0;whiteSpace=wrap;html=1;" vertex="1" parent="1">
          <mxGeometry x="121" y="-1070" width="120" height="39" as="geometry" />
        </mxCell>
        <mxCell id="0eVyNREpFF-r8MQKszDk-14" value="ОДНОРАЗОВАЯ ССЫЛКА&lt;br&gt;&lt;br&gt;отслеживать кол-во таких" style="shape=ext;rounded=1;html=1;whiteSpace=wrap;" vertex="1" parent="1">
          <mxGeometry x="341" y="-868.5" width="120" height="80" as="geometry" />
        </mxCell>
        <mxCell id="0eVyNREpFF-r8MQKszDk-18" value="Статистика" style="html=1;whiteSpace=wrap;rounded=1;" vertex="1" parent="1">
          <mxGeometry x="681" y="-817.5" width="120" height="50" as="geometry" />
        </mxCell>
        <mxCell id="0eVyNREpFF-r8MQKszDk-36" style="edgeStyle=orthogonalEdgeStyle;rounded=0;orthogonalLoop=1;jettySize=auto;html=1;entryX=0.5;entryY=1;entryDx=0;entryDy=0;" edge="1" parent="1" source="0eVyNREpFF-r8MQKszDk-27" target="7a84cebc1def654-16">
          <mxGeometry relative="1" as="geometry" />
        </mxCell>
        <mxCell id="0eVyNREpFF-r8MQKszDk-43" value="" style="edgeStyle=orthogonalEdgeStyle;rounded=0;orthogonalLoop=1;jettySize=auto;html=1;" edge="1" parent="1" source="0eVyNREpFF-r8MQKszDk-27" target="0eVyNREpFF-r8MQKszDk-38">
          <mxGeometry relative="1" as="geometry" />
        </mxCell>
        <mxCell id="0eVyNREpFF-r8MQKszDk-27" value="Ссылка" style="html=1;whiteSpace=wrap;rounded=1;" vertex="1" parent="1">
          <mxGeometry x="1011" y="-626.5" width="120" height="80" as="geometry" />
        </mxCell>
        <mxCell id="0eVyNREpFF-r8MQKszDk-78" style="edgeStyle=orthogonalEdgeStyle;rounded=0;orthogonalLoop=1;jettySize=auto;html=1;entryX=0.5;entryY=1;entryDx=0;entryDy=0;" edge="1" parent="1" source="0eVyNREpFF-r8MQKszDk-38" target="7a84cebc1def654-35">
          <mxGeometry relative="1" as="geometry" />
        </mxCell>
        <mxCell id="0eVyNREpFF-r8MQKszDk-80" style="edgeStyle=orthogonalEdgeStyle;rounded=0;orthogonalLoop=1;jettySize=auto;html=1;entryX=0.5;entryY=1;entryDx=0;entryDy=0;" edge="1" parent="1" source="0eVyNREpFF-r8MQKszDk-38" target="7a84cebc1def654-16">
          <mxGeometry relative="1" as="geometry" />
        </mxCell>
        <mxCell id="0eVyNREpFF-r8MQKszDk-38" value="QR-код" style="html=1;whiteSpace=wrap;rounded=1;" vertex="1" parent="1">
          <mxGeometry x="1171" y="-627.5" width="120" height="80" as="geometry" />
        </mxCell>
        <mxCell id="0eVyNREpFF-r8MQKszDk-45" value="Отправка SVG или PNG на почту" style="rounded=0;whiteSpace=wrap;html=1;" vertex="1" parent="1">
          <mxGeometry x="1271" y="-722.5" width="120" height="39" as="geometry" />
        </mxCell>
        <mxCell id="0eVyNREpFF-r8MQKszDk-46" style="edgeStyle=orthogonalEdgeStyle;rounded=0;orthogonalLoop=1;jettySize=auto;html=1;" edge="1" parent="1" source="7a84cebc1def654-35" target="0eVyNREpFF-r8MQKszDk-45">
          <mxGeometry relative="1" as="geometry" />
        </mxCell>
        <mxCell id="0eVyNREpFF-r8MQKszDk-51" value="" style="edgeStyle=orthogonalEdgeStyle;rounded=0;orthogonalLoop=1;jettySize=auto;html=1;" edge="1" parent="1" source="0eVyNREpFF-r8MQKszDk-47" target="0eVyNREpFF-r8MQKszDk-48">
          <mxGeometry relative="1" as="geometry" />
        </mxCell>
        <mxCell id="0eVyNREpFF-r8MQKszDk-47" value="" style="shape=message;whiteSpace=wrap;html=1;" vertex="1" parent="1">
          <mxGeometry x="383.5" y="-722.5" width="40" height="30" as="geometry" />
        </mxCell>
        <mxCell id="0eVyNREpFF-r8MQKszDk-48" value="Подтверждение EMAIL" style="rounded=0;whiteSpace=wrap;html=1;" vertex="1" parent="1">
          <mxGeometry x="438.5" y="-727" width="100" height="39" as="geometry" />
        </mxCell>
        <mxCell id="0eVyNREpFF-r8MQKszDk-49" style="edgeStyle=orthogonalEdgeStyle;rounded=0;orthogonalLoop=1;jettySize=auto;html=1;entryX=0.553;entryY=0.978;entryDx=0;entryDy=0;entryPerimeter=0;" edge="1" parent="1" source="7a84cebc1def654-8" target="0eVyNREpFF-r8MQKszDk-47">
          <mxGeometry relative="1" as="geometry" />
        </mxCell>
        <mxCell id="0eVyNREpFF-r8MQKszDk-58" value="Выход" style="ellipse;whiteSpace=wrap;html=1;rounded=1;" vertex="1" parent="1">
          <mxGeometry x="121" y="-517.5" width="80" height="80" as="geometry" />
        </mxCell>
        <mxCell id="0eVyNREpFF-r8MQKszDk-60" value="&amp;gt;&amp;gt;&amp;gt;" style="ellipse;whiteSpace=wrap;html=1;rounded=1;" vertex="1" parent="1">
          <mxGeometry x="121" y="-627.5" width="80" height="80" as="geometry" />
        </mxCell>
        <mxCell id="0eVyNREpFF-r8MQKszDk-61" value="Редактирование личной информации" style="html=1;whiteSpace=wrap;rounded=1;" vertex="1" parent="1">
          <mxGeometry x="681" y="-887.5" width="120" height="56.5" as="geometry" />
        </mxCell>
        <mxCell id="0eVyNREpFF-r8MQKszDk-64" value="Удаление аккаунта" style="html=1;whiteSpace=wrap;rounded=1;" vertex="1" parent="1">
          <mxGeometry x="681" y="-949.5" width="120" height="43.5" as="geometry" />
        </mxCell>
        <mxCell id="0eVyNREpFF-r8MQKszDk-74" style="edgeStyle=orthogonalEdgeStyle;rounded=0;orthogonalLoop=1;jettySize=auto;html=1;entryX=0;entryY=0.5;entryDx=0;entryDy=0;" edge="1" parent="1" source="0eVyNREpFF-r8MQKszDk-73" target="7a84cebc1def654-29">
          <mxGeometry relative="1" as="geometry" />
        </mxCell>
        <mxCell id="0eVyNREpFF-r8MQKszDk-95" style="edgeStyle=orthogonalEdgeStyle;rounded=0;orthogonalLoop=1;jettySize=auto;html=1;entryX=0;entryY=0.5;entryDx=0;entryDy=0;" edge="1" parent="1" source="0eVyNREpFF-r8MQKszDk-73" target="7a84cebc1def654-12">
          <mxGeometry relative="1" as="geometry">
            <Array as="points">
              <mxPoint x="761" y="-697.5" />
            </Array>
          </mxGeometry>
        </mxCell>
        <mxCell id="0eVyNREpFF-r8MQKszDk-73" value="Список ссылок" style="html=1;whiteSpace=wrap;rounded=1;" vertex="1" parent="1">
          <mxGeometry x="701" y="-627.5" width="120" height="80" as="geometry" />
        </mxCell>
        <mxCell id="0eVyNREpFF-r8MQKszDk-86" value="" style="edgeStyle=orthogonalEdgeStyle;rounded=0;orthogonalLoop=1;jettySize=auto;html=1;" edge="1" parent="1" source="0eVyNREpFF-r8MQKszDk-84" target="0eVyNREpFF-r8MQKszDk-85">
          <mxGeometry relative="1" as="geometry" />
        </mxCell>
        <mxCell id="0eVyNREpFF-r8MQKszDk-84" value="" style="shape=message;whiteSpace=wrap;html=1;" vertex="1" parent="1">
          <mxGeometry x="40" y="-987.5" width="41" height="40" as="geometry" />
        </mxCell>
        <mxCell id="0eVyNREpFF-r8MQKszDk-85" value="Email взаимодействие" style="rounded=0;whiteSpace=wrap;html=1;" vertex="1" parent="1">
          <mxGeometry x="121" y="-987.5" width="120" height="39" as="geometry" />
        </mxCell>
        <mxCell id="0eVyNREpFF-r8MQKszDk-89" value="" style="endArrow=classic;startArrow=classic;html=1;rounded=0;exitX=0.461;exitY=1.029;exitDx=0;exitDy=0;exitPerimeter=0;entryX=0.532;entryY=1.01;entryDx=0;entryDy=0;entryPerimeter=0;" edge="1" parent="1">
          <mxGeometry width="50" height="50" relative="1" as="geometry">
            <mxPoint x="906.8199999999999" y="-544.9799999999998" as="sourcePoint" />
            <mxPoint x="1235.3400000000001" y="-547.5" as="targetPoint" />
            <Array as="points">
              <mxPoint x="906.5" y="-518.3" />
              <mxPoint x="1071.5" y="-518.3" />
              <mxPoint x="1235.5" y="-518.3" />
            </Array>
          </mxGeometry>
        </mxCell>
        <mxCell id="0eVyNREpFF-r8MQKszDk-92" value="" style="edgeStyle=orthogonalEdgeStyle;rounded=0;orthogonalLoop=1;jettySize=auto;html=1;" edge="1" parent="1" source="0eVyNREpFF-r8MQKszDk-90" target="0eVyNREpFF-r8MQKszDk-91">
          <mxGeometry relative="1" as="geometry" />
        </mxCell>
        <mxCell id="0eVyNREpFF-r8MQKszDk-90" value="" style="shape=mxgraph.bpmn.timer_start;perimeter=ellipsePerimeter;html=1;labelPosition=right;labelBackgroundColor=#ffffff;align=left;" vertex="1" parent="1">
          <mxGeometry x="40" y="-906" width="41" height="38.5" as="geometry" />
        </mxCell>
        <mxCell id="0eVyNREpFF-r8MQKszDk-91" value="За прошедшее время" style="rounded=0;whiteSpace=wrap;html=1;" vertex="1" parent="1">
          <mxGeometry x="121" y="-906" width="120" height="39" as="geometry" />
        </mxCell>
        <mxCell id="0eVyNREpFF-r8MQKszDk-96" value="УДАЛЕНИЕ&lt;br&gt;" style="whiteSpace=wrap;html=1;rounded=1;" vertex="1" parent="1">
          <mxGeometry x="971" y="-794" width="80" height="36.5" as="geometry" />
        </mxCell>
        <mxCell id="0eVyNREpFF-r8MQKszDk-99" value="&lt;font style=&quot;font-size: 8px;&quot;&gt;РЕДАКТИРОВАНИЕ&lt;/font&gt;" style="whiteSpace=wrap;html=1;rounded=1;" vertex="1" parent="1">
          <mxGeometry x="971" y="-841" width="80" height="36.5" as="geometry" />
        </mxCell>
        <mxCell id="0eVyNREpFF-r8MQKszDk-103" value="&lt;font style=&quot;font-size: 8px;&quot;&gt;СТАТИСТИКА&lt;/font&gt;" style="whiteSpace=wrap;html=1;rounded=1;" vertex="1" parent="1">
          <mxGeometry x="971" y="-890.5" width="80" height="36.5" as="geometry" />
        </mxCell>
        <mxCell id="0eVyNREpFF-r8MQKszDk-106" value="" style="endArrow=classic;html=1;rounded=0;entryX=1.008;entryY=0.59;entryDx=0;entryDy=0;exitX=0.5;exitY=1;exitDx=0;exitDy=0;entryPerimeter=0;" edge="1" parent="1">
          <mxGeometry width="50" height="50" relative="1" as="geometry">
            <mxPoint x="620.3599999999998" y="-547.5" as="sourcePoint" />
            <mxPoint x="201.0000000000001" y="-470.29999999999995" as="targetPoint" />
            <Array as="points">
              <mxPoint x="620.36" y="-517.5" />
              <mxPoint x="420.36" y="-517.5" />
              <mxPoint x="420.36" y="-470.5" />
            </Array>
          </mxGeometry>
        </mxCell>
        <mxCell id="0eVyNREpFF-r8MQKszDk-108" value="&lt;h1&gt;&lt;font style=&quot;font-size: 24px;&quot;&gt;СЕРВЕР&lt;/font&gt;&lt;/h1&gt;" style="swimlane;whiteSpace=wrap;html=1;startSize=80;" vertex="1" parent="1">
          <mxGeometry x="40" y="-230" width="1640" height="1240" as="geometry">
            <mxRectangle x="40" y="-230" width="140" height="80" as="alternateBounds" />
          </mxGeometry>
        </mxCell>
        <mxCell id="0eVyNREpFF-r8MQKszDk-109" value="" style="shape=flexArrow;endArrow=classic;startArrow=classic;html=1;rounded=0;endWidth=54.73684210526316;endSize=19.494736842105265;startWidth=54.73684210526316;startSize=19.494736842105265;width=88.42105263157895;fillColor=default;" edge="1" parent="0eVyNREpFF-r8MQKszDk-108">
          <mxGeometry width="100" height="100" relative="1" as="geometry">
            <mxPoint x="101" y="150" as="sourcePoint" />
            <mxPoint x="101" y="-70" as="targetPoint" />
          </mxGeometry>
        </mxCell>
        <mxCell id="0eVyNREpFF-r8MQKszDk-171" style="edgeStyle=orthogonalEdgeStyle;rounded=0;orthogonalLoop=1;jettySize=auto;html=1;entryX=0;entryY=0.5;entryDx=0;entryDy=0;" edge="1" parent="0eVyNREpFF-r8MQKszDk-108" source="0eVyNREpFF-r8MQKszDk-125" target="0eVyNREpFF-r8MQKszDk-164">
          <mxGeometry relative="1" as="geometry" />
        </mxCell>
        <mxCell id="0eVyNREpFF-r8MQKszDk-125" value="&lt;font style=&quot;font-size: 24px;&quot;&gt;РЕГИСТРАЦИЯ&lt;/font&gt;" style="rounded=1;whiteSpace=wrap;html=1;" vertex="1" parent="0eVyNREpFF-r8MQKszDk-108">
          <mxGeometry x="220" y="110" width="190" height="60" as="geometry" />
        </mxCell>
        <mxCell id="0eVyNREpFF-r8MQKszDk-172" style="edgeStyle=orthogonalEdgeStyle;rounded=0;orthogonalLoop=1;jettySize=auto;html=1;" edge="1" parent="0eVyNREpFF-r8MQKszDk-108" source="0eVyNREpFF-r8MQKszDk-128" target="0eVyNREpFF-r8MQKszDk-164">
          <mxGeometry relative="1" as="geometry" />
        </mxCell>
        <mxCell id="0eVyNREpFF-r8MQKszDk-128" value="&lt;font style=&quot;font-size: 24px;&quot;&gt;АВТОРИЗАЦИЯ&lt;/font&gt;" style="rounded=1;whiteSpace=wrap;html=1;" vertex="1" parent="0eVyNREpFF-r8MQKszDk-108">
          <mxGeometry x="220" y="190" width="190" height="60" as="geometry" />
        </mxCell>
        <mxCell id="0eVyNREpFF-r8MQKszDk-169" style="edgeStyle=orthogonalEdgeStyle;rounded=0;orthogonalLoop=1;jettySize=auto;html=1;entryX=0;entryY=0.5;entryDx=0;entryDy=0;" edge="1" parent="0eVyNREpFF-r8MQKszDk-108" source="0eVyNREpFF-r8MQKszDk-160" target="0eVyNREpFF-r8MQKszDk-128">
          <mxGeometry relative="1" as="geometry" />
        </mxCell>
        <mxCell id="0eVyNREpFF-r8MQKszDk-170" style="edgeStyle=orthogonalEdgeStyle;rounded=0;orthogonalLoop=1;jettySize=auto;html=1;entryX=0;entryY=0.5;entryDx=0;entryDy=0;" edge="1" parent="0eVyNREpFF-r8MQKszDk-108" source="0eVyNREpFF-r8MQKszDk-160" target="0eVyNREpFF-r8MQKszDk-125">
          <mxGeometry relative="1" as="geometry" />
        </mxCell>
        <mxCell id="0eVyNREpFF-r8MQKszDk-160" value="" style="ellipse;whiteSpace=wrap;html=1;aspect=fixed;" vertex="1" parent="0eVyNREpFF-r8MQKszDk-108">
          <mxGeometry x="40" y="160" width="120" height="120" as="geometry" />
        </mxCell>
        <mxCell id="0eVyNREpFF-r8MQKszDk-175" value="" style="edgeStyle=orthogonalEdgeStyle;rounded=0;orthogonalLoop=1;jettySize=auto;html=1;" edge="1" parent="0eVyNREpFF-r8MQKszDk-108" source="0eVyNREpFF-r8MQKszDk-164" target="0eVyNREpFF-r8MQKszDk-174">
          <mxGeometry relative="1" as="geometry">
            <Array as="points">
              <mxPoint x="480" y="300" />
            </Array>
          </mxGeometry>
        </mxCell>
        <mxCell id="0eVyNREpFF-r8MQKszDk-164" value="ПОЛЬЗОВАТЕЛЬ" style="whiteSpace=wrap;html=1;rounded=1;align=left;" vertex="1" parent="0eVyNREpFF-r8MQKszDk-108">
          <mxGeometry x="460" y="150" width="190" height="60" as="geometry" />
        </mxCell>
        <mxCell id="0eVyNREpFF-r8MQKszDk-168" value="" style="ellipse;whiteSpace=wrap;html=1;aspect=fixed;" vertex="1" parent="0eVyNREpFF-r8MQKszDk-108">
          <mxGeometry x="595" y="155" width="50" height="50" as="geometry" />
        </mxCell>
        <mxCell id="0eVyNREpFF-r8MQKszDk-177" value="" style="edgeStyle=orthogonalEdgeStyle;rounded=0;orthogonalLoop=1;jettySize=auto;html=1;" edge="1" parent="0eVyNREpFF-r8MQKszDk-108" source="0eVyNREpFF-r8MQKszDk-174" target="0eVyNREpFF-r8MQKszDk-176">
          <mxGeometry relative="1" as="geometry">
            <Array as="points">
              <mxPoint x="390" y="340" />
              <mxPoint x="390" y="340" />
            </Array>
          </mxGeometry>
        </mxCell>
        <mxCell id="0eVyNREpFF-r8MQKszDk-174" value="ПОЛУЧЕНИЕ ИНФОРМАЦИИ О ПОЛЬЗОВАТЕЛЕ" style="whiteSpace=wrap;html=1;align=center;rounded=1;" vertex="1" parent="0eVyNREpFF-r8MQKszDk-108">
          <mxGeometry x="210" y="270" width="220" height="60" as="geometry" />
        </mxCell>
        <mxCell id="0eVyNREpFF-r8MQKszDk-176" value="РЕДАКТИРОВАНИЕ" style="whiteSpace=wrap;html=1;align=center;rounded=1;" vertex="1" parent="0eVyNREpFF-r8MQKszDk-108">
          <mxGeometry x="370" y="370" width="120" height="40" as="geometry" />
        </mxCell>
        <mxCell id="0eVyNREpFF-r8MQKszDk-179" value="РЕДАКТИРОВАНИЕ" style="whiteSpace=wrap;html=1;align=center;rounded=1;" vertex="1" parent="0eVyNREpFF-r8MQKszDk-108">
          <mxGeometry x="190" y="400" width="120" height="40" as="geometry" />
        </mxCell>
        <mxCell id="0eVyNREpFF-r8MQKszDk-180" value="&lt;span style=&quot;font-size: 24px;&quot;&gt;LOGOUT&lt;/span&gt;" style="ellipse;whiteSpace=wrap;html=1;aspect=fixed;" vertex="1" parent="0eVyNREpFF-r8MQKszDk-108">
          <mxGeometry x="40" y="300" width="120" height="120" as="geometry" />
        </mxCell>
        <mxCell id="0eVyNREpFF-r8MQKszDk-181" style="edgeStyle=orthogonalEdgeStyle;rounded=0;orthogonalLoop=1;jettySize=auto;html=1;entryX=1;entryY=0.5;entryDx=0;entryDy=0;" edge="1" parent="0eVyNREpFF-r8MQKszDk-108" source="0eVyNREpFF-r8MQKszDk-174" target="0eVyNREpFF-r8MQKszDk-180">
          <mxGeometry relative="1" as="geometry" />
        </mxCell>
        <mxCell id="0eVyNREpFF-r8MQKszDk-124" value="&lt;font style=&quot;font-size: 24px;&quot;&gt;ХРАНЕНИЕ ДАННЫХ&lt;/font&gt;" style="swimlane;whiteSpace=wrap;html=1;startSize=70;" vertex="1" parent="0eVyNREpFF-r8MQKszDk-108">
          <mxGeometry x="960" y="630" width="520" height="420" as="geometry">
            <mxRectangle x="740" y="570" width="290" height="70" as="alternateBounds" />
          </mxGeometry>
        </mxCell>
        <mxCell id="0eVyNREpFF-r8MQKszDk-190" value="QR-CODE" style="swimlane;fontStyle=0;childLayout=stackLayout;horizontal=1;startSize=30;horizontalStack=0;resizeParent=1;resizeParentMax=0;resizeLast=0;collapsible=1;marginBottom=0;whiteSpace=wrap;html=1;" vertex="1" parent="0eVyNREpFF-r8MQKszDk-124">
          <mxGeometry x="280" y="260" width="200" height="120" as="geometry" />
        </mxCell>
        <mxCell id="0eVyNREpFF-r8MQKszDk-191" value="Item 1" style="text;strokeColor=none;fillColor=none;align=left;verticalAlign=middle;spacingLeft=4;spacingRight=4;overflow=hidden;points=[[0,0.5],[1,0.5]];portConstraint=eastwest;rotatable=0;whiteSpace=wrap;html=1;" vertex="1" parent="0eVyNREpFF-r8MQKszDk-190">
          <mxGeometry y="30" width="200" height="30" as="geometry" />
        </mxCell>
        <mxCell id="0eVyNREpFF-r8MQKszDk-192" value="Item 2" style="text;strokeColor=none;fillColor=none;align=left;verticalAlign=middle;spacingLeft=4;spacingRight=4;overflow=hidden;points=[[0,0.5],[1,0.5]];portConstraint=eastwest;rotatable=0;whiteSpace=wrap;html=1;" vertex="1" parent="0eVyNREpFF-r8MQKszDk-190">
          <mxGeometry y="60" width="200" height="30" as="geometry" />
        </mxCell>
        <mxCell id="0eVyNREpFF-r8MQKszDk-193" value="Item 3" style="text;strokeColor=none;fillColor=none;align=left;verticalAlign=middle;spacingLeft=4;spacingRight=4;overflow=hidden;points=[[0,0.5],[1,0.5]];portConstraint=eastwest;rotatable=0;whiteSpace=wrap;html=1;" vertex="1" parent="0eVyNREpFF-r8MQKszDk-190">
          <mxGeometry y="90" width="200" height="30" as="geometry" />
        </mxCell>
        <mxCell id="0eVyNREpFF-r8MQKszDk-198" value="URL" style="swimlane;fontStyle=0;childLayout=stackLayout;horizontal=1;startSize=30;horizontalStack=0;resizeParent=1;resizeParentMax=0;resizeLast=0;collapsible=1;marginBottom=0;whiteSpace=wrap;html=1;" vertex="1" parent="0eVyNREpFF-r8MQKszDk-124">
          <mxGeometry x="280" y="100" width="200" height="120" as="geometry" />
        </mxCell>
        <mxCell id="0eVyNREpFF-r8MQKszDk-199" value="Item 1" style="text;strokeColor=none;fillColor=none;align=left;verticalAlign=middle;spacingLeft=4;spacingRight=4;overflow=hidden;points=[[0,0.5],[1,0.5]];portConstraint=eastwest;rotatable=0;whiteSpace=wrap;html=1;" vertex="1" parent="0eVyNREpFF-r8MQKszDk-198">
          <mxGeometry y="30" width="200" height="30" as="geometry" />
        </mxCell>
        <mxCell id="0eVyNREpFF-r8MQKszDk-200" value="Item 2" style="text;strokeColor=none;fillColor=none;align=left;verticalAlign=middle;spacingLeft=4;spacingRight=4;overflow=hidden;points=[[0,0.5],[1,0.5]];portConstraint=eastwest;rotatable=0;whiteSpace=wrap;html=1;" vertex="1" parent="0eVyNREpFF-r8MQKszDk-198">
          <mxGeometry y="60" width="200" height="30" as="geometry" />
        </mxCell>
        <mxCell id="0eVyNREpFF-r8MQKszDk-201" value="Item 3" style="text;strokeColor=none;fillColor=none;align=left;verticalAlign=middle;spacingLeft=4;spacingRight=4;overflow=hidden;points=[[0,0.5],[1,0.5]];portConstraint=eastwest;rotatable=0;whiteSpace=wrap;html=1;" vertex="1" parent="0eVyNREpFF-r8MQKszDk-198">
          <mxGeometry y="90" width="200" height="30" as="geometry" />
        </mxCell>
        <mxCell id="0eVyNREpFF-r8MQKszDk-202" value="USER" style="swimlane;fontStyle=0;childLayout=stackLayout;horizontal=1;startSize=30;horizontalStack=0;resizeParent=1;resizeParentMax=0;resizeLast=0;collapsible=1;marginBottom=0;whiteSpace=wrap;html=1;" vertex="1" parent="0eVyNREpFF-r8MQKszDk-124">
          <mxGeometry x="40" y="100" width="200" height="120" as="geometry" />
        </mxCell>
        <mxCell id="0eVyNREpFF-r8MQKszDk-203" value="Item 1" style="text;strokeColor=none;fillColor=none;align=left;verticalAlign=middle;spacingLeft=4;spacingRight=4;overflow=hidden;points=[[0,0.5],[1,0.5]];portConstraint=eastwest;rotatable=0;whiteSpace=wrap;html=1;" vertex="1" parent="0eVyNREpFF-r8MQKszDk-202">
          <mxGeometry y="30" width="200" height="30" as="geometry" />
        </mxCell>
        <mxCell id="0eVyNREpFF-r8MQKszDk-204" value="Item 2" style="text;strokeColor=none;fillColor=none;align=left;verticalAlign=middle;spacingLeft=4;spacingRight=4;overflow=hidden;points=[[0,0.5],[1,0.5]];portConstraint=eastwest;rotatable=0;whiteSpace=wrap;html=1;" vertex="1" parent="0eVyNREpFF-r8MQKszDk-202">
          <mxGeometry y="60" width="200" height="30" as="geometry" />
        </mxCell>
        <mxCell id="0eVyNREpFF-r8MQKszDk-205" value="Item 3" style="text;strokeColor=none;fillColor=none;align=left;verticalAlign=middle;spacingLeft=4;spacingRight=4;overflow=hidden;points=[[0,0.5],[1,0.5]];portConstraint=eastwest;rotatable=0;whiteSpace=wrap;html=1;" vertex="1" parent="0eVyNREpFF-r8MQKszDk-202">
          <mxGeometry y="90" width="200" height="30" as="geometry" />
        </mxCell>
        <mxCell id="0eVyNREpFF-r8MQKszDk-206" value="TOKEN" style="swimlane;fontStyle=0;childLayout=stackLayout;horizontal=1;startSize=30;horizontalStack=0;resizeParent=1;resizeParentMax=0;resizeLast=0;collapsible=1;marginBottom=0;whiteSpace=wrap;html=1;" vertex="1" parent="0eVyNREpFF-r8MQKszDk-124">
          <mxGeometry x="40" y="260" width="200" height="120" as="geometry" />
        </mxCell>
        <mxCell id="0eVyNREpFF-r8MQKszDk-207" value="Item 1" style="text;strokeColor=none;fillColor=none;align=left;verticalAlign=middle;spacingLeft=4;spacingRight=4;overflow=hidden;points=[[0,0.5],[1,0.5]];portConstraint=eastwest;rotatable=0;whiteSpace=wrap;html=1;" vertex="1" parent="0eVyNREpFF-r8MQKszDk-206">
          <mxGeometry y="30" width="200" height="30" as="geometry" />
        </mxCell>
        <mxCell id="0eVyNREpFF-r8MQKszDk-208" value="Item 2" style="text;strokeColor=none;fillColor=none;align=left;verticalAlign=middle;spacingLeft=4;spacingRight=4;overflow=hidden;points=[[0,0.5],[1,0.5]];portConstraint=eastwest;rotatable=0;whiteSpace=wrap;html=1;" vertex="1" parent="0eVyNREpFF-r8MQKszDk-206">
          <mxGeometry y="60" width="200" height="30" as="geometry" />
        </mxCell>
        <mxCell id="0eVyNREpFF-r8MQKszDk-209" value="Item 3" style="text;strokeColor=none;fillColor=none;align=left;verticalAlign=middle;spacingLeft=4;spacingRight=4;overflow=hidden;points=[[0,0.5],[1,0.5]];portConstraint=eastwest;rotatable=0;whiteSpace=wrap;html=1;" vertex="1" parent="0eVyNREpFF-r8MQKszDk-206">
          <mxGeometry y="90" width="200" height="30" as="geometry" />
        </mxCell>
        <mxCell id="0eVyNREpFF-r8MQKszDk-227" value="&lt;font style=&quot;font-size: 24px;&quot;&gt;URL/QR SERVICE&lt;/font&gt;" style="swimlane;whiteSpace=wrap;html=1;startSize=50;" vertex="1" parent="0eVyNREpFF-r8MQKszDk-108">
          <mxGeometry x="960" y="125" width="640" height="470" as="geometry">
            <mxRectangle x="960" y="125" width="140" height="90" as="alternateBounds" />
          </mxGeometry>
        </mxCell>
        <mxCell id="0eVyNREpFF-r8MQKszDk-145" style="edgeStyle=orthogonalEdgeStyle;rounded=0;orthogonalLoop=1;jettySize=auto;html=1;entryX=0.5;entryY=0;entryDx=0;entryDy=0;" edge="1" parent="0eVyNREpFF-r8MQKszDk-227">
          <mxGeometry relative="1" as="geometry">
            <mxPoint x="239.72000000000003" y="150" as="sourcePoint" />
            <mxPoint x="239.72000000000003" y="390" as="targetPoint" />
            <Array as="points">
              <mxPoint x="240" y="210" />
              <mxPoint x="240" y="210" />
            </Array>
          </mxGeometry>
        </mxCell>
        <mxCell id="0eVyNREpFF-r8MQKszDk-129" value="&lt;font style=&quot;font-size: 24px;&quot;&gt;СОЗДАНИЕ URL&lt;br&gt;&lt;/font&gt;" style="rounded=1;whiteSpace=wrap;html=1;" vertex="1" parent="0eVyNREpFF-r8MQKszDk-227">
          <mxGeometry x="20" y="180" width="170" height="80" as="geometry" />
        </mxCell>
        <mxCell id="0eVyNREpFF-r8MQKszDk-131" value="&lt;font style=&quot;font-size: 24px;&quot;&gt;СОЗДАНИЕ QR&lt;/font&gt;" style="rounded=1;whiteSpace=wrap;html=1;" vertex="1" parent="0eVyNREpFF-r8MQKszDk-227">
          <mxGeometry x="20" y="280" width="170" height="80" as="geometry" />
        </mxCell>
        <mxCell id="0eVyNREpFF-r8MQKszDk-133" value="&lt;font style=&quot;font-size: 18px;&quot;&gt;РЕДАКТИРОВАНИЕ&lt;/font&gt;" style="rounded=1;whiteSpace=wrap;html=1;" vertex="1" parent="0eVyNREpFF-r8MQKszDk-227">
          <mxGeometry x="280" y="280" width="180" height="40" as="geometry" />
        </mxCell>
        <mxCell id="0eVyNREpFF-r8MQKszDk-141" value="&lt;font style=&quot;font-size: 18px;&quot;&gt;УДАЛЕНИЕ&lt;/font&gt;" style="rounded=1;whiteSpace=wrap;html=1;" vertex="1" parent="0eVyNREpFF-r8MQKszDk-227">
          <mxGeometry x="280" y="320" width="180" height="40" as="geometry" />
        </mxCell>
        <mxCell id="0eVyNREpFF-r8MQKszDk-142" style="edgeStyle=orthogonalEdgeStyle;rounded=0;orthogonalLoop=1;jettySize=auto;html=1;exitX=0.5;exitY=1;exitDx=0;exitDy=0;" edge="1" parent="0eVyNREpFF-r8MQKszDk-227" source="0eVyNREpFF-r8MQKszDk-141" target="0eVyNREpFF-r8MQKszDk-141">
          <mxGeometry relative="1" as="geometry" />
        </mxCell>
        <mxCell id="0eVyNREpFF-r8MQKszDk-143" value="&lt;font style=&quot;font-size: 18px;&quot;&gt;РЕДАКТИРОВАНИЕ&lt;/font&gt;" style="rounded=1;whiteSpace=wrap;html=1;" vertex="1" parent="0eVyNREpFF-r8MQKszDk-227">
          <mxGeometry x="280" y="180" width="180" height="40" as="geometry" />
        </mxCell>
        <mxCell id="0eVyNREpFF-r8MQKszDk-144" value="&lt;font style=&quot;font-size: 18px;&quot;&gt;УДАЛЕНИЕ&lt;/font&gt;" style="rounded=1;whiteSpace=wrap;html=1;" vertex="1" parent="0eVyNREpFF-r8MQKszDk-227">
          <mxGeometry x="280" y="220" width="180" height="40" as="geometry" />
        </mxCell>
        <mxCell id="0eVyNREpFF-r8MQKszDk-147" value="" style="endArrow=classic;html=1;rounded=0;entryX=1.008;entryY=0.393;entryDx=0;entryDy=0;entryPerimeter=0;" edge="1" parent="0eVyNREpFF-r8MQKszDk-227">
          <mxGeometry width="50" height="50" relative="1" as="geometry">
            <mxPoint x="238.63999999999987" y="220" as="sourcePoint" />
            <mxPoint x="190" y="220.44000000000005" as="targetPoint" />
          </mxGeometry>
        </mxCell>
        <mxCell id="0eVyNREpFF-r8MQKszDk-148" value="" style="endArrow=classic;html=1;rounded=0;entryX=1.008;entryY=0.393;entryDx=0;entryDy=0;entryPerimeter=0;" edge="1" parent="0eVyNREpFF-r8MQKszDk-227">
          <mxGeometry width="50" height="50" relative="1" as="geometry">
            <mxPoint x="238.63999999999987" y="319.44000000000005" as="sourcePoint" />
            <mxPoint x="190" y="319.8800000000001" as="targetPoint" />
          </mxGeometry>
        </mxCell>
        <mxCell id="0eVyNREpFF-r8MQKszDk-149" value="" style="endArrow=classic;html=1;rounded=0;entryX=0;entryY=0.5;entryDx=0;entryDy=0;" edge="1" parent="0eVyNREpFF-r8MQKszDk-227" target="0eVyNREpFF-r8MQKszDk-144">
          <mxGeometry width="50" height="50" relative="1" as="geometry">
            <mxPoint x="240" y="240" as="sourcePoint" />
            <mxPoint x="190" y="240.44000000000005" as="targetPoint" />
          </mxGeometry>
        </mxCell>
        <mxCell id="0eVyNREpFF-r8MQKszDk-150" value="" style="endArrow=classic;html=1;rounded=0;entryX=0;entryY=0.5;entryDx=0;entryDy=0;" edge="1" parent="0eVyNREpFF-r8MQKszDk-227">
          <mxGeometry width="50" height="50" relative="1" as="geometry">
            <mxPoint x="240" y="200" as="sourcePoint" />
            <mxPoint x="280" y="199.72000000000003" as="targetPoint" />
          </mxGeometry>
        </mxCell>
        <mxCell id="0eVyNREpFF-r8MQKszDk-151" value="" style="endArrow=classic;html=1;rounded=0;entryX=0;entryY=0.5;entryDx=0;entryDy=0;" edge="1" parent="0eVyNREpFF-r8MQKszDk-227">
          <mxGeometry width="50" height="50" relative="1" as="geometry">
            <mxPoint x="240" y="300" as="sourcePoint" />
            <mxPoint x="280" y="299.72" as="targetPoint" />
          </mxGeometry>
        </mxCell>
        <mxCell id="0eVyNREpFF-r8MQKszDk-152" value="" style="endArrow=classic;html=1;rounded=0;entryX=0;entryY=0.5;entryDx=0;entryDy=0;" edge="1" parent="0eVyNREpFF-r8MQKszDk-227">
          <mxGeometry width="50" height="50" relative="1" as="geometry">
            <mxPoint x="240" y="340" as="sourcePoint" />
            <mxPoint x="280" y="339.72" as="targetPoint" />
          </mxGeometry>
        </mxCell>
        <mxCell id="0eVyNREpFF-r8MQKszDk-155" value="ФОРМИРОВАНИЕ СТАТИСТИКИ" style="whiteSpace=wrap;html=1;rounded=1;" vertex="1" parent="0eVyNREpFF-r8MQKszDk-227">
          <mxGeometry x="500" y="200" width="120" height="140" as="geometry" />
        </mxCell>
        <mxCell id="0eVyNREpFF-r8MQKszDk-132" value="&lt;font style=&quot;font-size: 24px;&quot;&gt;ОТСЛЕЖИВАНИЕ ВЗАИМОДЕЙСТВИЙ&lt;br&gt;&lt;/font&gt;" style="rounded=1;whiteSpace=wrap;html=1;" vertex="1" parent="0eVyNREpFF-r8MQKszDk-227">
          <mxGeometry x="20" y="390" width="440" height="60" as="geometry" />
        </mxCell>
        <mxCell id="0eVyNREpFF-r8MQKszDk-156" value="" style="edgeStyle=orthogonalEdgeStyle;rounded=0;orthogonalLoop=1;jettySize=auto;html=1;" edge="1" parent="0eVyNREpFF-r8MQKszDk-227" source="0eVyNREpFF-r8MQKszDk-132" target="0eVyNREpFF-r8MQKszDk-155">
          <mxGeometry relative="1" as="geometry" />
        </mxCell>
        <mxCell id="0eVyNREpFF-r8MQKszDk-126" value="&lt;font style=&quot;font-size: 24px;&quot;&gt;ПОЛУЧЕНИЕ ССЫЛОК&lt;/font&gt;" style="rounded=1;whiteSpace=wrap;html=1;" vertex="1" parent="0eVyNREpFF-r8MQKszDk-227">
          <mxGeometry x="20" y="70" width="250" height="80" as="geometry" />
        </mxCell>
        <mxCell id="0eVyNREpFF-r8MQKszDk-158" value="&lt;font style=&quot;font-size: 24px;&quot;&gt;ПОЛУЧЕНИЕ СТАТИСТИКИ&lt;/font&gt;" style="rounded=1;whiteSpace=wrap;html=1;" vertex="1" parent="0eVyNREpFF-r8MQKszDk-227">
          <mxGeometry x="280" y="70" width="180" height="80" as="geometry" />
        </mxCell>
        <mxCell id="0eVyNREpFF-r8MQKszDk-159" style="edgeStyle=orthogonalEdgeStyle;rounded=0;orthogonalLoop=1;jettySize=auto;html=1;entryX=1;entryY=0.5;entryDx=0;entryDy=0;" edge="1" parent="0eVyNREpFF-r8MQKszDk-227" source="0eVyNREpFF-r8MQKszDk-155" target="0eVyNREpFF-r8MQKszDk-158">
          <mxGeometry relative="1" as="geometry">
            <Array as="points">
              <mxPoint x="560" y="110" />
            </Array>
          </mxGeometry>
        </mxCell>
        <mxCell id="0eVyNREpFF-r8MQKszDk-231" style="edgeStyle=orthogonalEdgeStyle;rounded=0;orthogonalLoop=1;jettySize=auto;html=1;" edge="1" parent="0eVyNREpFF-r8MQKszDk-108" source="0eVyNREpFF-r8MQKszDk-230" target="0eVyNREpFF-r8MQKszDk-227">
          <mxGeometry relative="1" as="geometry" />
        </mxCell>
        <mxCell id="0eVyNREpFF-r8MQKszDk-230" value="MAIN PROCESS" style="ellipse;whiteSpace=wrap;html=1;aspect=fixed;" vertex="1" parent="0eVyNREpFF-r8MQKszDk-108">
          <mxGeometry x="730" y="280" width="160" height="160" as="geometry" />
        </mxCell>
        <mxCell id="0eVyNREpFF-r8MQKszDk-233" style="edgeStyle=orthogonalEdgeStyle;rounded=0;orthogonalLoop=1;jettySize=auto;html=1;entryX=-0.001;entryY=0.108;entryDx=0;entryDy=0;entryPerimeter=0;" edge="1" parent="0eVyNREpFF-r8MQKszDk-108" source="0eVyNREpFF-r8MQKszDk-230" target="0eVyNREpFF-r8MQKszDk-124">
          <mxGeometry relative="1" as="geometry" />
        </mxCell>
        <mxCell id="0eVyNREpFF-r8MQKszDk-234" value="&lt;font style=&quot;font-size: 24px;&quot;&gt;СЕРВИСЫ&lt;/font&gt;" style="swimlane;whiteSpace=wrap;html=1;startSize=70;" vertex="1" parent="0eVyNREpFF-r8MQKszDk-108">
          <mxGeometry x="40" y="810" width="590" height="400" as="geometry" />
        </mxCell>
        <mxCell id="0eVyNREpFF-r8MQKszDk-123" value="&lt;font style=&quot;font-size: 18px;&quot;&gt;Отправка мейлов&lt;br&gt;&lt;br&gt;SENDGRID&lt;/font&gt;" style="rounded=1;whiteSpace=wrap;html=1;" vertex="1" parent="0eVyNREpFF-r8MQKszDk-234">
          <mxGeometry x="11" y="90" width="180" height="110" as="geometry" />
        </mxCell>
        <mxCell id="0eVyNREpFF-r8MQKszDk-235" value="" style="endArrow=classic;startArrow=classic;html=1;rounded=0;entryX=1;entryY=0.467;entryDx=0;entryDy=0;entryPerimeter=0;exitX=0.438;exitY=0;exitDx=0;exitDy=0;exitPerimeter=0;" edge="1" parent="0eVyNREpFF-r8MQKszDk-108" source="0eVyNREpFF-r8MQKszDk-230" target="0eVyNREpFF-r8MQKszDk-164">
          <mxGeometry width="50" height="50" relative="1" as="geometry">
            <mxPoint x="690" y="360" as="sourcePoint" />
            <mxPoint x="740" y="310" as="targetPoint" />
            <Array as="points">
              <mxPoint x="760" y="178" />
            </Array>
          </mxGeometry>
        </mxCell>
      </root>
    </mxGraphModel>
  </diagram>
</mxfile>
